<?xml version="1.0" standalone="no"?>
<!DOCTYPE svg PUBLIC "-//W3C//DTD SVG 20010904//EN"
 "http://www.w3.org/TR/2001/REC-SVG-20010904/DTD/svg10.dtd">
<svg version="1.0" xmlns="http://www.w3.org/2000/svg"
 width="256.000000pt" height="256.000000pt" viewBox="0 0 256.000000 256.000000"
 preserveAspectRatio="xMidYMid meet">

<g transform="translate(0.000000,256.000000) scale(0.100000,-0.100000)"
fill="#000000" stroke="none">
<path d="M0 1280 l0 -1280 1280 0 1280 0 0 1280 0 1280 -1280 0 -1280 0 0
-1280z m2132 992 c16 -13 22 -10 60 31 l43 46 152 -135 153 -136 -153 -171
c-84 -95 -398 -449 -697 -787 -299 -338 -643 -726 -763 -862 l-219 -247 -122
106 c-66 59 -131 116 -144 127 l-24 21 -36 -43 c-20 -23 -41 -42 -45 -42 -15
0 -298 254 -295 265 2 6 412 473 912 1037 l909 1026 126 -111 c69 -61 134
-117 143 -125z"/>
</g>
</svg>
